<?xml version="1.0" encoding="UTF-8"?>
<svg width="580" height="220" version="1.1" xmlns="http://www.w3.org/2000/svg">
 <path d="m0-0.001184h580v220h-580z" fill="#0071b4" stroke-width="1.0043"/>
 <g fill="#fff" stroke-width="1.0043">
  <path d="m21.9 136.85h536.48v-115.99h-536.48zm47.708-40.169c0.6989 0 0.6989-0.56032 0.6989-0.56032v-30.697h1.9537v30.624s0.1614 2.3683-2.5092 2.3683c-2.6702 0-2.6522-2.3683-2.6522-2.3683v-30.624h1.9533v30.552s-0.1613 0.70495 0.5555 0.70495zm67.766 6.6162h-74.645v-3.1636h74.645zm-57.978-4.8809v-32.992h1.5592l1.9537 17.626v-17.626h1.6486v32.992h-1.6486l-1.9537-19.832v19.832zm16.74-18.458v1.808h-2.1151v14.915h2.814v1.7355h-5.0006v-32.992h4.3017v1.663h-2.1151v12.872zm9.6598 16.686c0.502 0.03621 0.502-0.59665 0.502-0.59665v-7.6104c0-3.1998-3.0468-10.178-3.0468-14.317v-6.3091s0-2.2958 2.5807-2.368c2.5808-0.07242 2.5093 2.368 2.5093 2.368v7.4121h-2.0253v-7.4121s0-0.70495-0.5555-0.70495c-0.5559 0-0.4661 0.70495-0.4661 0.70495v7.4121c0 2.4404 3.0469 9.8164 3.0469 13.703v7.1408s0 2.3683-2.5808 2.3683-2.5092-2.3683-2.5092-2.3683v-8.28h2.0431v8.28c0-0.01816 0 0.54261 0.5017 0.57851zm12.241-29.557c-0.6989 0-0.6989 0.70496-0.6989 0.70496v28.256s0.1254 0.63285 0.6989 0.63285c0.6274 0 0.6274-0.63285 0.6274-0.63285v-8.2794h1.9534v8.2794s0 2.3683-2.5808 2.3683c-2.5807 0-2.5089-2.3683-2.5089-2.3683v-28.256s0-2.368 2.5089-2.368c2.5093 0 2.5808 2.368 2.5808 2.368v7.4121h-1.9534v-7.4121s0-0.70496-0.6274-0.70496zm9.7138 28.961v-28.256s0-2.368 2.7421-2.368c2.7417 0 2.5808 2.368 2.5808 2.368v28.256s0 2.3683-2.7421 2.3683c-2.5808 0-2.5808-2.3683-2.5808-2.3683zm-65.022-35.704h74.645v3.1636h-74.645zm6.0217-2.0247 31.292-9.6357 30.826 9.6357h-9.0684l-21.758-6.7068-22.223 6.7068zm-6.0217-3.3988 37.313-11.606 37.332 11.606v3.3988l-37.564-11.444-37.081 11.444zm-4.2297 50.582h82.943v3.1458h-82.943zm87.012 8.5327h-90.918v-3.1636h90.918zm409.63 19.543h-376.96v-109.44h376.96zm-423.95-37.53v-28.256s0-0.70496-0.7884-0.70496c-0.6989 0-0.6989 0.70496-0.6989 0.70496v28.256s0 0.63285 0.7704 0.63285c0.7888 0 0.7169-0.63285 0.7169-0.63285z"/>
  <path d="m421 70.184c-2.3644-1.4104-5.4834-2.7119-8.477-2.7119-1.6135 0-3.4425 0.43389-4.4091 1.41-0.539 0.54262-0.9666 1.4104-0.9666 2.1697 0 1.0845 0.751 1.7354 1.5056 2.1693 1.0744 0.65061 2.6879 0.97614 4.6211 1.6267l4.0893 1.3016c2.6878 0.86771 5.4834 1.9525 7.9378 4.2303 2.7956 2.6032 3.7622 5.5318 3.7622 9.2198 0 6.3992-2.7957 10.503-4.9445 12.672-4.7324 4.7726-10.539 5.5138-15.574 5.5138-6.4536 0-13.425-1.4101-19.663-6.9238l6.5615-10.504c1.5056 1.3016 3.6544 2.8203 5.2679 3.5797 2.1524 1.0846 4.409 1.5184 6.4536 1.5184 0.9667 0 3.4389 0 4.8367-1.0846 0.9702-0.75935 1.6135-1.9525 1.6135-3.1458 0-0.86777-0.3235-1.9522-1.7213-2.82-1.0744-0.65098-2.4722-1.0848-4.7289-1.7354l-3.8736-1.1933c-2.7957-0.86776-5.6991-2.3865-7.7401-4.4471-2.2602-2.3865-3.4424-5.0981-3.4424-8.7859 0-4.6642 1.829-8.5509 4.6246-11.154 4.3013-4.0132 10.09-4.8809 14.499-4.8809 7.0785 0 12.024 1.8439 15.897 4.1215zm-53.281 5.2068c-0.1075-0.43389-0.8603-3.4709-3.1184-5.6402-1.7204-1.6271-4.1937-2.712-7.3122-2.712-3.9789 0-6.3446 1.6271-7.8504 3.1458-1.1825 1.3016-2.2581 3.0371-2.6882 5.2065zm14.282 9.3099h-35.77c0 2.6033 0.9677 6.0747 2.9035 8.2438 2.3655 2.6032 5.5916 3.0371 7.939 3.0371 2.2584 0 4.624-0.43389 6.2367-1.4104 0.215-0.10838 2.0432-1.3016 3.3336-4.0132l14.607 1.5187c-2.1506 6.8156-6.4519 10.395-9.2296 12.13-4.6236 2.8199-9.7857 3.5794-15.144 3.5794-7.1865 0-13.531-1.3016-19.123-6.942-4.1939-4.2303-7.2045-10.612-7.2045-18.638 0-6.9244 2.4734-14.082 7.3123-19.072 5.8069-5.857 12.994-6.942 18.37-6.942 5.3767 0 13.101 0.97608 19.015 7.2671 5.6992 6.0741 6.773 13.649 6.773 19.614v1.6267zm-109.98-26.865h15.466v5.749c4.7314-6.0741 10.306-7.0507 14.822-7.0507 4.1938 0 9.6778 0.75923 13.746 4.8812 4.5162 4.5554 4.8389 10.287 4.8389 14.191v30.552h-15.466v-24.803c0-3.1454-0.1078-7.1408-2.5811-9.6351-1.1826-1.1932-3.1183-2.1693-5.8964-2.1693-3.2257 0-5.2689 1.3016-6.4519 2.6032-2.5807 2.6033-3.0108 6.0741-3.0108 9.2018v24.821h-15.466zm-45.754 3.63e-4v26.647c0 2.1694 0.2149 5.5319 2.6882 7.8099 1.0755 0.97608 3.0109 2.2776 6.4518 2.2776 2.9035 0 5.1616-0.97608 6.5598-2.2776 2.258-2.1694 2.5807-5.4236 2.5807-7.8099v-26.647h15.466v28.166c0 5.5319-0.5376 10.719-5.3767 15.493-5.4839 5.4235-13.531 6.2911-19.23 6.2911-5.9143 0-13.853-0.86778-19.338-6.2911-4.4091-4.3387-5.2693-9.2018-5.2693-14.516v-29.141zm279.63 37.061c-6.9353 0-12.58-5.6947-12.58-12.69 0-6.9963 5.6452-12.69 12.58-12.69 6.9354 0 12.58 5.6947 12.58 12.69s-5.6452 12.69-12.58 12.69zm-0.072-38.597c-14.086 0-25.556 11.571-25.556 25.779s11.47 25.779 25.556 25.779 25.556-11.57 25.556-25.779c0-14.209-11.452-25.779-25.556-25.779zm-36.271 34.855c-2.386 2.3861-5.5374 3.7059-8.9078 3.7059-6.9534 0-12.616-5.7124-12.616-12.727 0-7.0139 5.6452-12.727 12.616-12.727 3.3346 0 6.468 1.3016 8.8539 3.67l0.3235 0.32516 5.7349-12.311-0.2156-0.1627c-4.3372-3.0912-9.4471-4.7364-14.769-4.7364-14.122 0-25.592 11.588-25.592 25.816 0 14.245 11.488 25.816 25.592 25.816 5.3038 0 10.396-1.627 14.733-4.7182l0.2156-0.1627-5.6452-12.112z"/>
  <path d="m544.8 194.88q-3.3576 0-5.787-1.2942-2.4157-1.3079-3.726-3.7446-1.2966-2.4506-1.2966-5.8649 0-3.2767 1.3103-5.7272 1.3102-2.4505 3.6987-3.8135 2.3884-1.363 5.6368-1.363 2.3748 0 4.2992 0.74341 1.9245 0.74341 3.2893 2.1614 1.3649 1.4042 2.1019 3.4142t0.737 4.5295v1.7622h-18.726v-4.1852h11.792q-0.014-0.90864-0.464-1.5971-0.4368-0.70215-1.1875-1.0876-0.737-0.39924-1.6787-0.39924-0.9144 0-1.6788 0.39924-0.7643 0.38543-1.2284 1.0739-0.4504 0.68833-0.4776 1.6108v4.5156q0 1.0188 0.423 1.8173 0.4232 0.79839 1.2147 1.2527 0.7917 0.45432 1.9109 0.45432 0.7779 0 1.4194-0.2202 0.6551-0.2203 1.1191-0.63336 0.4641-0.42668 0.6825-1.0187h6.8788q-0.3548 2.2027-1.6787 3.8272-1.3239 1.6108-3.5077 2.5057-2.1701 0.8811-5.0772 0.8811zm-24.895 7.985q-3.1528 0-5.4048-0.90864-2.2383-0.89492-3.4804-2.4781-1.2283-1.5694-1.3785-3.607h7.2611q0.1091 0.67461 0.5459 1.0876 0.4367 0.41306 1.1192 0.592 0.696 0.19266 1.5559 0.19266 1.4604 0 2.4157-0.71587 0.9691-0.71588 0.9691-2.5882v-3.5795h-0.2184q-0.4094 1.0739-1.2556 1.8311-0.8463 0.74341-2.0336 1.1426-1.1875 0.38543-2.6069 0.38543-2.2384 0-4.1219-1.0463-1.8698-1.0462-3.0027-3.3178-1.1191-2.2716-1.1191-5.9337 0-3.8273 1.1738-6.2228 1.1874-2.3956 3.0572-3.5107 1.8835-1.1151 3.9581-1.1151 1.5559 0 2.7296 0.55065 1.1738 0.53693 1.9655 1.4456 0.7916 0.89491 1.201 1.9688h0.1638v-3.6897h7.534v21.092q0 2.6847-1.3786 4.557-1.3648 1.8861-3.8488 2.8773t-5.8006 0.99125zm0.273-14.043q1.0373 0 1.7742-0.57818 0.7508-0.59201 1.1465-1.6796 0.4095-1.1014 0.4095-2.6433 0-1.5694-0.4095-2.6846-0.3957-1.1289-1.1465-1.721-0.7369-0.60562-1.7742-0.60562t-1.7744 0.60562q-0.7233 0.59201-1.1191 1.721-0.3821 1.1152-0.3821 2.6846 0 1.5694 0.3821 2.6708 0.3958 1.0876 1.1191 1.6659 0.7371 0.56436 1.7744 0.56436zm-27.242 6.0026q-2.0062 0-3.5485-0.6609-1.5287-0.67452-2.4022-2.0375-0.8735-1.363-0.8735-3.4693 0-1.7347 0.5869-2.96 0.5869-1.239 1.6378-2.0238 1.051-0.78467 2.4431-1.1977 1.4058-0.41307 3.03-0.53694 1.7606-0.13768 2.8252-0.33045 1.0782-0.20648 1.5559-0.56436 0.4777-0.37171 0.4777-0.97753v-0.0555q0-0.82603-0.6278-1.2666-0.6278-0.4405-1.6105-0.4405-1.0783 0-1.7607 0.48186-0.6688 0.46804-0.8053 1.4455h-6.9333q0.1364-1.9273 1.2147-3.5519 1.0918-1.6382 3.18-2.6158 2.0883-0.99125 5.2138-0.99125 2.252 0 4.0399 0.53693 1.7879 0.52321 3.0436 1.4732 1.2557 0.93607 1.9108 2.2027 0.6688 1.2528 0.6688 2.7259v14.483h-7.0426v-2.9738h-0.1638q-0.6279 1.184-1.5287 1.9136-0.8871 0.72969-2.0336 1.0601-1.1328 0.33035-2.4977 0.33035zm2.4568-4.791q0.8598 0 1.6105-0.35798 0.7643-0.35789 1.242-1.0325t0.4777-1.6383v-1.7622q-0.3003 0.12387-0.6414 0.23412-0.3276 0.11005-0.7098 0.20648-0.3685 0.0958-0.7916 0.17895-0.4095 0.0827-0.8599 0.1515-0.8734 0.13759-1.433 0.45432-0.546 0.30281-0.819 0.75713-0.2593 0.4406-0.2593 0.99125 0 0.8811 0.6142 1.3492 0.6142 0.46803 1.5696 0.46803zm-11.356-16.686v5.507h-13.812v-5.507zm-11.137-5.0663h7.534v19.411q0 0.44049 0.1501 0.74341 0.1501 0.28909 0.464 0.4406 0.314 0.13758 0.8053 0.13758 0.3412 0 0.7916-0.0827 0.4641-0.0827 0.6825-0.13769l1.0918 5.3417q-0.5049 0.15141-1.4467 0.37171-0.9281 0.2203-2.211 0.28909-2.5933 0.13759-4.3539-0.53693-1.7607-0.68843-2.6478-2.1614-0.8872-1.4731-0.8599-3.6896zm-12.72 26.213v-21.146h7.5339v21.146zm3.7806-23.349q-1.5423 0-2.6342-1.0188-1.0919-1.0188-1.0919-2.4505 0-1.4318 1.0919-2.4505 1.0919-1.0188 2.6206-1.0188 1.5422 0 2.6204 1.0188 1.0919 1.0187 1.0919 2.4505 0 1.4318-1.0919 2.4505-1.0782 1.0188-2.6068 1.0188zm-20.432 23.349v-21.146h7.3155v4.0201h0.2184q0.5733-2.2302 1.8153-3.2628 1.2556-1.0325 2.9344-1.0325 0.4914 0 0.969 0.0827 0.4914 0.0686 0.9418 0.20648v6.4843q-0.5596-0.19276-1.3785-0.28909-0.8189-0.0958-1.4058-0.0958-1.1055 0-1.9927 0.50929-0.8735 0.49568-1.3785 1.4043-0.505 0.89492-0.505 2.1064v11.014zm-13.321 0.38552q-3.3575 0-5.7869-1.2942-2.4158-1.3079-3.7261-3.7446-1.2966-2.4506-1.2966-5.8649 0-3.2767 1.3103-5.7272 1.3102-2.4505 3.6987-3.8135 2.3885-1.363 5.6368-1.363 2.3749 0 4.2993 0.74341t3.2893 2.1614q1.3648 1.4042 2.1018 3.4142 0.7371 2.01 0.7371 4.5295v1.7622h-18.726v-4.1852h11.792q-0.014-0.90864-0.464-1.5971-0.4368-0.70215-1.1874-1.0876-0.7371-0.39924-1.6788-0.39924-0.9144 0-1.6788 0.39924-0.7643 0.38543-1.2283 1.0739-0.4504 0.68834-0.4777 1.6108v4.5156q0 1.0188 0.4231 1.8173 0.4231 0.79838 1.2147 1.2527t1.9108 0.45432q0.7779 0 1.4194-0.2202 0.6551-0.2203 1.1192-0.63336 0.4641-0.42668 0.6824-1.0187h6.8789q-0.3549 2.2027-1.6788 3.8272-1.3239 1.6108-3.5077 2.5057-2.1701 0.8811-5.0772 0.8811zm-38.98-0.38552v-28.195h7.5885v11.014h10.045v-11.014h7.5885v28.195h-7.5885v-11.014h-10.045v11.014zm-11.356-28.195v28.195h-7.534v-28.195zm-24.404 28.526q-2.0063 0-3.5486-0.6609-1.5286-0.67452-2.4021-2.0375-0.8735-1.363-0.8735-3.4693 0-1.7347 0.5869-2.96 0.5869-1.239 1.6378-2.0238 1.0509-0.78467 2.4431-1.1977 1.4058-0.41306 3.0299-0.53693 1.7607-0.13769 2.8253-0.33045 1.0782-0.20648 1.5559-0.56437 0.4777-0.3717 0.4777-0.97753v-0.0555q0-0.82602-0.6279-1.2666-0.6278-0.4405-1.6105-0.4405-1.0782 0-1.7606 0.48185-0.6688 0.46804-0.8053 1.4455h-6.9334q0.1365-1.9273 1.2147-3.5519 1.0919-1.6382 3.1801-2.6158 2.0882-0.99125 5.2138-0.99125 2.2519 0 4.0399 0.53693 1.7879 0.52321 3.0436 1.4732 1.2556 0.93608 1.9108 2.2027 0.6688 1.2528 0.6688 2.7259v14.483h-7.0427v-2.9738h-0.1638q-0.6278 1.184-1.5286 1.9136-0.8871 0.7297-2.0336 1.0602-1.1328 0.33035-2.4977 0.33035zm2.4567-4.791q0.8599 0 1.6106-0.35799 0.7643-0.35788 1.242-1.0325t0.4777-1.6383v-1.7622q-0.3003 0.12387-0.6415 0.23412-0.3275 0.11005-0.7097 0.20648-0.3685 0.0958-0.7916 0.17894-0.4095 0.0827-0.8599 0.15151-0.8735 0.13758-1.4331 0.45432-0.5459 0.30281-0.8189 0.75713-0.2593 0.4406-0.2593 0.99125 0 0.8811 0.6142 1.3492 0.6142 0.46804 1.5695 0.46804zm-23.967 4.4606v-21.146h7.3156v4.0201h0.2184q0.5732-2.2302 1.8152-3.2628 1.2557-1.0325 2.9344-1.0325 0.4913 0 0.9691 0.0827 0.4913 0.0686 0.9417 0.20649v6.4843q-0.5596-0.19276-1.3785-0.28909-0.8189-0.0958-1.4057-0.0958-1.1056 0-1.9927 0.5093-0.8736 0.49567-1.3785 1.4043-0.505 0.89492-0.505 2.1064v11.014zm-11.356-9.2516v-11.895h7.5339v21.146h-7.1518v-4.02h-0.2183q-0.6825 2.0238-2.3885 3.1664-1.7061 1.1289-4.0536 1.1289-2.1974 0-3.8489-1.0188-1.6378-1.0188-2.5522-2.8085-0.9008-1.7897-0.9145-4.1026v-13.492h7.534v11.895q0.014 1.5695 0.7916 2.4644 0.7916 0.89492 2.2111 0.89492 0.9417 0 1.6241-0.39925 0.6961-0.41306 1.0646-1.1565 0.3822-0.75723 0.3685-1.8036zm-16.651-11.895v5.507h-13.812v-5.507zm-11.137-5.0663h7.5339v19.411q0 0.4405 0.1501 0.74342 0.1502 0.28909 0.4641 0.4406 0.3139 0.13758 0.8053 0.13758 0.3411 0 0.7915-0.0827 0.4641-0.0827 0.6825-0.13769l1.0919 5.3417q-0.505 0.15141-1.4468 0.37171-0.9281 0.2203-2.211 0.28909-2.5932 0.13759-4.3539-0.53693-1.7607-0.68844-2.6478-2.1614-0.8872-1.4731-0.8598-3.6896zm-5.1865-1.9824v28.195h-7.5339v-28.195zm-18.89 18.943v-11.895h7.534v21.146h-7.1518v-4.02h-0.2184q-0.6824 2.0238-2.3884 3.1664-1.7061 1.1289-4.0536 1.1289-2.1974 0-3.8489-1.0188-1.6378-1.0188-2.5523-2.8085-0.9008-1.7897-0.9144-4.1026v-13.492h7.5339v11.895q0.014 1.5695 0.7916 2.4644 0.7917 0.89492 2.2111 0.89492 0.9417 0 1.6242-0.39925 0.696-0.41306 1.0645-1.1565 0.3822-0.75723 0.3685-1.8036zm-17.142-8.3704h-7.6977q-0.082-0.96371-0.4368-1.7485-0.3412-0.78476-0.9554-1.3491-0.6005-0.57819-1.4603-0.8812-0.8599-0.31663-1.9518-0.31663-1.9108 0-3.2347 0.93627-1.3103 0.93608-1.9927 2.6846-0.6687 1.7485-0.6687 4.199 0 2.5882 0.6824 4.3366 0.6961 1.7348 2.0063 2.6159 1.3103 0.86728 3.1528 0.86728 1.0509 0 1.8835-0.26156 0.8326-0.27537 1.4467-0.78477 0.6143-0.50929 0.9964-1.2253 0.3958-0.72959 0.5323-1.6382l7.6977 0.0555q-0.1365 1.7897-0.9964 3.6483-0.8598 1.8448-2.443 3.4142-1.5696 1.5557-3.8898 2.5057-2.3202 0.94989-5.3912 0.94989-3.8488 0-6.9061-1.6658-3.0436-1.6659-4.8179-4.9012-1.7607-3.2353-1.7607-7.9162 0-4.7084 1.8016-7.9299 1.8016-3.2353 4.8589-4.8874 3.0573-1.6659 6.8242-1.6659 2.6478 0 4.8726 0.72969 2.2246 0.7297 3.9034 2.1339 1.6788 1.3905 2.7024 3.4281 1.0236 2.0375 1.242 4.6671zm-46.951 18.007q-3.3576 0-5.787-1.2942-2.4158-1.3079-3.726-3.7446-1.2966-2.4506-1.2966-5.8649 0-3.2767 1.3102-5.7272 1.3103-2.4505 3.6988-3.8135 2.3884-1.363 5.6368-1.363 2.3748 0 4.2993 0.74341 1.9244 0.74341 3.2892 2.1614 1.3649 1.4042 2.1019 3.4142 0.737 2.01 0.737 4.5295v1.7622h-18.726v-4.1852h11.792q-0.014-0.90864-0.464-1.5971-0.4368-0.70216-1.1875-1.0876-0.737-0.39925-1.6787-0.39925-0.9145 0-1.6788 0.39925-0.7643 0.38542-1.2284 1.0739-0.4504 0.68833-0.4776 1.6108v4.5156q0 1.0188 0.423 1.8173 0.4231 0.79839 1.2147 1.2527 0.7917 0.45431 1.9109 0.45431 0.7779 0 1.4194-0.22019 0.6551-0.22031 1.1191-0.63337 0.4641-0.42668 0.6825-1.0187h6.8788q-0.3549 2.2027-1.6787 3.8272-1.324 1.6108-3.5077 2.5057-2.1701 0.8811-5.0772 0.8811zm-13.867-28.581v28.195h-7.5339v-28.195zm-32.429 28.195v-28.195h7.5339v10.739h0.1092q0.4095-1.0739 1.2011-1.9688 0.7916-0.90864 1.9654-1.4456 1.1737-0.55065 2.7297-0.55065 2.0745 0 3.9443 1.1151 1.8835 1.1151 3.0573 3.5107 1.1875 2.3955 1.1875 6.2228 0 3.6621-1.1329 6.0713-1.1191 2.4093-3.0026 3.5933-1.8699 1.184-4.1083 1.184-1.474 0-2.6341-0.48186-1.1465-0.49567-1.9654-1.3354-0.8053-0.85357-1.242-1.9274h-0.1637v3.4693zm7.3701-10.573q0 1.5419 0.3958 2.6708 0.4095 1.1151 1.1465 1.7347 0.7507 0.60582 1.788 0.60582t1.7606-0.592q0.737-0.60583 1.1192-1.721 0.3958-1.1289 0.3958-2.6984t-0.3958-2.6846q-0.3822-1.1289-1.1192-1.721-0.7233-0.60562-1.7606-0.60562t-1.788 0.60562q-0.737 0.59201-1.1465 1.721-0.3958 1.1152-0.3958 2.6846zm-18.616 10.573v-21.146h7.534v21.146zm3.7807-23.349q-1.5423 0-2.6342-1.0188t-1.0919-2.4505q0-1.4318 1.0919-2.4505 1.0919-1.0188 2.6205-1.0188 1.5423 0 2.6205 1.0188 1.0919 1.0187 1.0919 2.4505 0 1.4318-1.0919 2.4505-1.0782 1.0188-2.6068 1.0188zm-18.63 31.72q-3.1528 0-5.4048-0.90864-2.2384-0.89492-3.4803-2.4781-1.2284-1.5694-1.3785-3.607h7.261q0.1092 0.67461 0.5459 1.0876 0.4367 0.41306 1.1192 0.592 0.6961 0.19266 1.5559 0.19266 1.4604 0 2.4158-0.71587 0.969-0.71588 0.969-2.5882v-3.5795h-0.2184q-0.4094 1.0739-1.2556 1.8311-0.8462 0.74341-2.0337 1.1426-1.1873 0.38543-2.6068 0.38543-2.2383 0-4.1218-1.0463-1.8699-1.0462-3.0027-3.3178-1.1192-2.2716-1.1192-5.9337 0-3.8273 1.1738-6.2228 1.1874-2.3956 3.0572-3.5107 1.8835-1.1151 3.9581-1.1151 1.556 0 2.7297 0.55065 1.1738 0.53693 1.9654 1.4456 0.7916 0.89491 1.201 1.9688h0.1638v-3.6897h7.534v21.092q0 2.6847-1.3785 4.557-1.3649 1.8861-3.8489 2.8773t-5.8006 0.99125zm0.273-14.043q1.0373 0 1.7743-0.57818 0.7507-0.59201 1.1464-1.6796 0.4095-1.1014 0.4095-2.6433 0-1.5694-0.4095-2.6846-0.3957-1.1289-1.1464-1.721-0.737-0.60562-1.7743-0.60562t-1.7743 0.60562q-0.7234 0.59201-1.1192 1.721-0.3821 1.1152-0.3821 2.6846 0 1.5694 0.3821 2.6708 0.3958 1.0876 1.1192 1.6659 0.737 0.56436 1.7743 0.56436zm-27.679-6.2228v11.895h-7.534v-21.146h7.1518v4.0201h0.2184q0.6824-2.01 2.4021-3.1527 1.7334-1.1427 4.0399-1.1427 2.2248 0 3.8626 1.0325 1.6515 1.0188 2.5523 2.8085 0.9144 1.7897 0.9008 4.0889v13.492h-7.534v-11.895q0.014-1.5694-0.7916-2.4643-0.7916-0.89491-2.2111-0.89491-0.928 0-1.6241 0.41296-0.6825 0.39934-1.051 1.1566-0.3685 0.74331-0.3821 1.7896zm-24.404 12.225q-2.0063 0-3.5486-0.6609-1.5287-0.67452-2.4022-2.0375-0.8735-1.363-0.8735-3.4693 0-1.7347 0.5869-2.96 0.5869-1.239 1.6378-2.0238 1.051-0.78467 2.4431-1.1977 1.4058-0.41307 3.03-0.53693 1.7606-0.13769 2.8252-0.33046 1.0783-0.20648 1.5559-0.56436 0.4777-0.37171 0.4777-0.97753v-0.0555q0-0.82603-0.6278-1.2666-0.6278-0.4405-1.6106-0.4405-1.0782 0-1.7606 0.48186-0.6688 0.46804-0.8053 1.4455h-6.9333q0.1364-1.9273 1.2147-3.5519 1.0918-1.6382 3.1801-2.6158 2.0881-0.99125 5.2137-0.99125 2.252 0 4.0399 0.53693 1.7879 0.52321 3.0436 1.4732 1.2557 0.93607 1.9108 2.2027 0.6688 1.2528 0.6688 2.7259v14.483h-7.0426v-2.9738h-0.1638q-0.6279 1.184-1.5287 1.9136-0.8871 0.72969-2.0336 1.0601-1.1328 0.33035-2.4976 0.33035zm2.4567-4.791q0.8598 0 1.6105-0.35799 0.7643-0.35789 1.242-1.0325t0.4777-1.6383v-1.7622q-0.3002 0.12387-0.6414 0.23412-0.3276 0.11005-0.7098 0.20648-0.3685 0.0958-0.7916 0.17895-0.4095 0.0827-0.8599 0.1515-0.8734 0.13759-1.433 0.45432-0.546 0.30281-0.819 0.75713-0.2593 0.4406-0.2593 0.99125 0 0.8811 0.6142 1.3492 0.6142 0.46804 1.5696 0.46804zm-11.356-16.686v5.507h-13.812v-5.507zm-11.137-5.0663h7.534v19.411q0 0.4405 0.1501 0.74341 0.1501 0.28909 0.464 0.4406 0.314 0.13758 0.8053 0.13758 0.3413 0 0.7917-0.0827 0.464-0.0827 0.6824-0.13769l1.0918 5.3417q-0.5049 0.1514-1.4467 0.3717-0.9281 0.2203-2.211 0.28909-2.5933 0.13759-4.3539-0.53693-1.7606-0.68843-2.6478-2.1614-0.8872-1.4731-0.8599-3.6896zm-18.671 14.317v11.895h-7.534v-21.146h7.1518v4.0201h0.2184q0.6824-2.01 2.4021-3.1527 1.7334-1.1427 4.04-1.1427 2.2247 0 3.8625 1.0325 1.6515 1.0188 2.5523 2.8085 0.9144 1.7897 0.9008 4.0889v13.492h-7.534v-11.895q0.014-1.5694-0.7916-2.4643-0.7916-0.89492-2.211-0.89492-0.9281 0-1.6242 0.41297-0.6825 0.39934-1.051 1.1566-0.3684 0.74331-0.3821 1.7896zm-11.246-16.301v28.195h-7.5886v-28.195z"/>
 </g>
</svg>
